<?xml version="1.0" encoding="UTF-8"?>
<!-- Created with Inkscape (http://www.inkscape.org/) -->
<svg width="50mm" height="79mm" version="1.1" viewBox="0 0 50 79" xmlns="http://www.w3.org/2000/svg">
 <path d="m26.908 74.165c-1.7905-0.70516-2.8495-2.9657-1.8104-4.7028 1.1783-1.663 3.8605-1.9426 5.214-0.33536 1.3606 1.5085 0.86825 4.4524-1.2851 4.9261-0.68086 0.21655-1.4189 0.26013-2.1185 0.11202zm-0.61203-10.211c-2.4784-1.8821-2.3419-5.4685-1.6979-8.2056 0.60639-2.7184 2.0369-5.1956 4.079-7.0899 2.7259-2.8471 6.1864-5.6377 6.69-9.8118 0.48016-3.5123-1.2841-7.7661-4.8949-8.8335-2.8474-0.78759-5.9521 2.3799-4.7107 5.2021 0.63101 2.0826 3.2263 3.2046 3.0255 5.5786-0.28104 2.818-3.0608 4.8554-5.8112 4.7271-2.3649 0.23578-5.1634-0.55518-6.025-3.0223-1.5876-4.21 0.0032-9.0761 2.8514-12.362 2.7967-3.2013 7.2297-4.2576 11.331-4.066 2.6581-0.02719 5.5906 0.40247 7.4204 2.5427 4.2609 4.7975 3.9127 12.736-0.22072 17.505-2.1365 2.6145-5.783 3.6136-7.4842 6.6135-1.6024 3.1659-0.13032 6.7934-0.95758 10.098-0.47491 1.3479-2.4509 2.2986-3.5951 1.1242z" stroke-width=".26458"/>
</svg>
